M48
;DRILL file {KiCad 4.0.6} date 05/15/17 10:50:18
;FORMAT={-:-/ absolute / inch / decimal}
FMAT,2
INCH,TZ
T1C0.016
T2C0.016
T3C0.039
T4C0.043
T5C0.197
%
G90
G05
M72
T1
X1.775Y-3.075
X1.775Y-3.35
X1.85Y-1.5
X1.915Y-2.26
X1.955Y-2.325
X2.025Y-3.15
X2.035Y-2.2
X2.135Y-4.17
X2.2Y-2.235
X2.2Y-3.375
X2.205Y-2.365
X2.23Y-3.145
X2.33Y-2.24
X2.355Y-3.69
X2.365Y-1.895
X2.38Y-1.82
X2.395Y-3.425
X2.415Y-3.05
X2.435Y-3.325
X2.465Y-1.82
X2.4713Y-3.9799
X2.48Y-3.825
X2.495Y-4.1
X2.51Y-2.805
X2.5106Y-3.9811
X2.525Y-1.36
X2.535Y-3.425
X2.5515Y-3.9811
X2.595Y-3.3849
X2.62Y-3.565
X2.6356Y-3.82
X2.675Y-3.82
X2.71Y-3.57
X2.715Y-3.185
X2.72Y-3.82
X2.74Y-2.645
X2.74Y-3.295
X2.75Y-1.2425
X2.765Y-2.8
X2.78Y-2.645
X2.79Y-3.39
X2.795Y-2.83
X2.875Y-2.81
X2.975Y-1.36
X2.975Y-2.815
X3.125Y-2.545
X3.145Y-1.74
X3.145Y-1.795
X3.155Y-2.545
X3.2Y-1.2425
X3.295Y-3.04
X3.295Y-3.2
X3.335Y-2.575
X3.365Y-1.74
X3.425Y-1.355
X3.455Y-2.6
X3.46Y-2.7
X3.63Y-2.11
X3.63Y-2.185
X3.64Y-5.595
X3.675Y-3.47
X3.73Y-3.515
X3.765Y-3.38
X3.78Y-3.555
X3.82Y-3.425
X3.865Y-3.59
X3.875Y-3.49
X3.8829Y-3.152
X3.9048Y-3.1848
X3.93Y-3.215
X3.93Y-3.59
X3.96Y-3.075
X4.Y-2.925
X4.Y-3.335
X4.Y-3.475
X4.005Y-3.03
X4.015Y-3.075
X4.07Y-3.075
X4.075Y-3.485
X4.08Y-3.565
X4.1Y-3.405
X4.12Y-3.465
X4.175Y-3.185
X4.21Y-3.095
X4.2171Y-3.2142
X4.25Y-2.605
X4.255Y-3.55
X4.26Y-3.205
X4.325Y-3.15
X4.365Y-3.55
X4.365Y-3.69
X4.365Y-3.73
X4.37Y-3.195
X4.38Y-2.92
X4.38Y-3.035
X4.43Y-3.03
X4.46Y-3.56
X4.5Y-3.6
X4.57Y-5.35
X4.58Y-3.61
X4.585Y-3.845
X4.59Y-3.565
X4.59Y-3.945
X4.63Y-4.525
X4.64Y-1.705
X4.645Y-1.79
X4.67Y-3.91
X4.6743Y-3.8568
X4.685Y-2.79
X4.73Y-3.63
X4.735Y-3.14
X4.735Y-3.365
X4.74Y-2.73
X4.74Y-3.45
X4.75Y-2.98
X4.795Y-2.98
X4.855Y-3.96
X4.87Y-3.565
X4.87Y-3.64
X4.88Y-2.72
X4.88Y-3.8
X4.915Y-2.785
X4.92Y-3.915
X4.945Y-3.4
X4.975Y-3.795
X4.99Y-2.925
X5.02Y-3.535
X5.02Y-3.595
X5.02Y-3.75
X5.03Y-3.135
X5.03Y-3.185
X5.075Y-1.52
X5.08Y-2.695
X5.08Y-2.825
X5.14Y-3.085
X5.145Y-2.965
X5.175Y-2.965
X5.3Y-3.075
X5.325Y-5.59
X5.385Y-2.295
X5.445Y-2.295
X5.695Y-2.295
X5.735Y-3.07
X5.765Y-2.295
X5.805Y-3.12
X5.895Y-3.385
X5.91Y-2.66
X5.91Y-4.1
X5.93Y-2.805
X5.97Y-4.33
X5.98Y-3.12
X6.01Y-2.885
X6.015Y-3.345
X6.015Y-3.57
X6.055Y-3.12
X6.06Y-4.555
X6.205Y-3.59
X6.21Y-2.87
X6.215Y-4.32
X6.225Y-3.12
X6.315Y-2.225
X6.315Y-2.5
X6.315Y-5.35
X6.335Y-1.685
X6.335Y-1.795
X6.365Y-2.925
X6.45Y-3.12
X6.455Y-2.925
X6.56Y-4.555
X6.575Y-3.275
X6.575Y-4.015
X6.58Y-1.47
X6.58Y-2.525
X6.615Y-2.61
X6.615Y-3.355
X6.615Y-4.08
X6.71Y-2.95
X6.735Y-3.685
X6.74Y-4.4
X6.775Y-2.92
X6.8Y-3.655
X6.8Y-4.355
X6.905Y-3.78
X6.91Y-3.86
X6.915Y-3.04
X6.915Y-3.145
X6.93Y-5.35
X7.015Y-3.145
X7.025Y-3.77
X7.025Y-3.86
X7.18Y-5.795
X7.2Y-3.04
X7.43Y-4.555
X7.51Y-3.36
X7.65Y-2.67
X7.755Y-1.71
T2
X2.905Y-1.785
X2.905Y-1.905
X3.035Y-2.095
X3.295Y-2.115
T3
X1.9Y-3.75
X1.9Y-3.85
X1.9Y-3.95
X1.9Y-4.05
X1.9Y-4.85
X1.9Y-4.95
X1.9Y-5.05
X1.9Y-5.15
X1.9Y-5.25
X1.9Y-5.35
X1.9Y-5.45
X1.9Y-5.55
X2.Y-4.85
X2.Y-4.95
X2.Y-5.05
X2.Y-5.15
X2.Y-5.25
X2.Y-5.35
X2.Y-5.45
X2.Y-5.55
X2.4463Y-4.325
X2.4463Y-4.425
X2.925Y-5.525
X2.925Y-5.675
X3.025Y-5.525
X3.025Y-5.675
X4.1Y-2.65
X4.1Y-2.75
X4.1Y-2.85
X4.5Y-2.65
X4.5Y-2.75
X4.5Y-2.85
X4.6Y-2.65
X4.6Y-2.75
X4.6Y-2.85
X5.7463Y-4.45
X5.8463Y-4.45
T4
X1.625Y-1.3
X1.625Y-1.4
X1.625Y-4.3
X1.625Y-4.4
X1.625Y-4.5
X1.625Y-4.6
T5
X4.Y-1.409
X4.Y-2.
X4.Y-5.
X4.Y-5.591
X5.75Y-1.409
X5.75Y-2.
X5.75Y-5.
X5.75Y-5.591
X7.5Y-1.409
X7.5Y-2.
X7.5Y-5.
X7.5Y-5.591
T0
M30
