G04 #@! TF.FileFunction,Soldermask,Top*
%FSLAX46Y46*%
G04 Gerber Fmt 4.6, Leading zero omitted, Abs format (unit mm)*
G04 Created by KiCad (PCBNEW 4.0.6) date 05/15/17 10:50:15*
%MOMM*%
%LPD*%
G01*
G04 APERTURE LIST*
%ADD10C,0.100000*%
%ADD11C,0.150000*%
%ADD12R,0.601600X1.001600*%
%ADD13R,1.801600X1.801600*%
%ADD14O,1.801600X1.801600*%
%ADD15R,3.901600X2.101600*%
%ADD16R,2.101600X3.901600*%
%ADD17R,1.601600X0.701600*%
%ADD18R,1.501140X2.301240*%
%ADD19R,2.301240X1.501140*%
%ADD20R,6.501600X5.101600*%
%ADD21C,1.401600*%
%ADD22R,3.101600X0.801600*%
%ADD23R,0.901600X0.851600*%
%ADD24R,0.851600X0.901600*%
%ADD25R,2.601600X4.101600*%
%ADD26R,1.701600X1.101600*%
%ADD27R,1.101600X1.701600*%
%ADD28R,1.001600X0.601600*%
%ADD29R,1.401600X0.801600*%
%ADD30R,0.801600X1.401600*%
%ADD31R,1.001600X1.801600*%
%ADD32R,1.101600X1.801600*%
%ADD33R,1.501600X1.101600*%
%ADD34R,1.501600X1.301600*%
%ADD35R,0.751600X1.161600*%
%ADD36R,1.276600X1.276600*%
%ADD37R,1.651600X0.701600*%
%ADD38R,1.161600X0.751600*%
%ADD39R,0.501600X1.301600*%
%ADD40R,0.651600X1.701600*%
%ADD41R,1.701600X0.651600*%
%ADD42R,2.100580X2.100580*%
%ADD43O,2.100580X2.100580*%
%ADD44C,10.101600*%
%ADD45R,1.601600X1.601600*%
%ADD46R,0.901600X1.001600*%
%ADD47R,5.901600X2.201600*%
%ADD48R,0.876600X1.341600*%
%ADD49R,0.751600X0.401600*%
G04 APERTURE END LIST*
D10*
D11*
X38100000Y-25400000D02*
X38100000Y-25400000D01*
X38100000Y-152400000D02*
X38100000Y-25400000D01*
X203200000Y-152400000D02*
X38100000Y-152400000D01*
X203200000Y-25400000D02*
X203200000Y-152400000D01*
X38100000Y-25400000D02*
X203200000Y-25400000D01*
D12*
X82664000Y-141605000D03*
X81164000Y-141605000D03*
D13*
X62135000Y-109855000D03*
D14*
X62135000Y-112395000D03*
D13*
X74294000Y-144145000D03*
D14*
X76834000Y-144145000D03*
D13*
X74294000Y-140335000D03*
D14*
X76834000Y-140335000D03*
D13*
X145955000Y-113030000D03*
D14*
X148495000Y-113030000D03*
D15*
X76200000Y-84431256D03*
D16*
X68580000Y-74930000D03*
D15*
X76200000Y-87630000D03*
X48895000Y-32385000D03*
X54610000Y-32385000D03*
X60960000Y-44450000D03*
X86995000Y-59182000D03*
X144780000Y-96520000D03*
X144780000Y-101600000D03*
X144780000Y-86360000D03*
X144780000Y-91440000D03*
X144780000Y-76200000D03*
X144780000Y-81280000D03*
X177800000Y-35560000D03*
X177800000Y-142240000D03*
X158750000Y-35560000D03*
X158750000Y-142240000D03*
X114300000Y-35560000D03*
X114300000Y-142240000D03*
D17*
X165458248Y-111005354D03*
X165458248Y-109735354D03*
X165458248Y-108465354D03*
X165458248Y-107195354D03*
X165458248Y-105925354D03*
X165458248Y-104655354D03*
X165458248Y-103385354D03*
X165458248Y-102115354D03*
X156158248Y-102115354D03*
X156158248Y-103385354D03*
X156158248Y-104655354D03*
X156158248Y-105925354D03*
X156158248Y-107195354D03*
X156158248Y-108465354D03*
X156158248Y-109735354D03*
X156158248Y-111005354D03*
X165296408Y-92504838D03*
X165296408Y-91234838D03*
X165296408Y-89964838D03*
X165296408Y-88694838D03*
X165296408Y-87424838D03*
X165296408Y-86154838D03*
X165296408Y-84884838D03*
X165296408Y-83614838D03*
X155996408Y-83614838D03*
X155996408Y-84884838D03*
X155996408Y-86154838D03*
X155996408Y-87424838D03*
X155996408Y-88694838D03*
X155996408Y-89964838D03*
X155996408Y-91234838D03*
X155996408Y-92504838D03*
X165363674Y-74223676D03*
X165363674Y-72953676D03*
X165363674Y-71683676D03*
X165363674Y-70413676D03*
X165363674Y-69143676D03*
X165363674Y-67873676D03*
X165363674Y-66603676D03*
X165363674Y-65333676D03*
X156063674Y-65333676D03*
X156063674Y-66603676D03*
X156063674Y-67873676D03*
X156063674Y-69143676D03*
X156063674Y-70413676D03*
X156063674Y-71683676D03*
X156063674Y-72953676D03*
X156063674Y-74223676D03*
D18*
X174007888Y-104020354D03*
X169608608Y-104020354D03*
X173846048Y-85773838D03*
X169446768Y-85773838D03*
X174167314Y-67111676D03*
X169768034Y-67111676D03*
X75270360Y-54991000D03*
X79669640Y-54991000D03*
D19*
X54610000Y-40426640D03*
X54610000Y-36027360D03*
D20*
X47680000Y-74865000D03*
D21*
X47100000Y-84615000D03*
X47100000Y-79115000D03*
D22*
X54100000Y-79990000D03*
X54100000Y-82490000D03*
X54100000Y-83740000D03*
X54100000Y-81240000D03*
D20*
X47680000Y-88865000D03*
D23*
X48145000Y-38100000D03*
X49645000Y-38100000D03*
D24*
X60056616Y-76012622D03*
X60056616Y-77512622D03*
D25*
X86995000Y-31560000D03*
X86995000Y-39560000D03*
X75565000Y-39560000D03*
X75565000Y-31560000D03*
X64135000Y-31560000D03*
X64135000Y-39560000D03*
D23*
X60080664Y-49276000D03*
X61580664Y-49276000D03*
D26*
X89333714Y-50718614D03*
X89333714Y-53718614D03*
D23*
X121170000Y-95250000D03*
X122670000Y-95250000D03*
D24*
X86995000Y-50833614D03*
X86995000Y-52333614D03*
D23*
X58405664Y-55938220D03*
X56905664Y-55938220D03*
X60080664Y-57843220D03*
X61580664Y-57843220D03*
X103112000Y-87249000D03*
X101612000Y-87249000D03*
X58405664Y-59748220D03*
X56905664Y-59748220D03*
D26*
X120269000Y-86511000D03*
X120269000Y-89511000D03*
D23*
X66942727Y-86948423D03*
X65442727Y-86948423D03*
D24*
X84963000Y-52209000D03*
X84963000Y-53709000D03*
X117983000Y-87261000D03*
X117983000Y-88761000D03*
D23*
X101612000Y-85725000D03*
X103112000Y-85725000D03*
X52930000Y-55885000D03*
X54430000Y-55885000D03*
D27*
X70759771Y-90508753D03*
X67759771Y-90508753D03*
D26*
X82348714Y-58396000D03*
X82348714Y-55396000D03*
D24*
X68497771Y-88464753D03*
X68497771Y-86964753D03*
X70021771Y-88464753D03*
X70021771Y-86964753D03*
X74728714Y-45983614D03*
X74728714Y-44483614D03*
D27*
X86590000Y-66040000D03*
X83590000Y-66040000D03*
X86590000Y-68580000D03*
X83590000Y-68580000D03*
D23*
X126734000Y-75692000D03*
X125234000Y-75692000D03*
D26*
X75565000Y-67080000D03*
X75565000Y-70080000D03*
X73025000Y-67080000D03*
X73025000Y-70080000D03*
D23*
X124575000Y-85471000D03*
X123075000Y-85471000D03*
X153000248Y-104274354D03*
X151500248Y-104274354D03*
X152572408Y-86027838D03*
X151072408Y-86027838D03*
X152905674Y-67619676D03*
X151405674Y-67619676D03*
D26*
X169268248Y-101075354D03*
X169268248Y-98075354D03*
X168852408Y-79955838D03*
X168852408Y-82955838D03*
X168919674Y-61039676D03*
X168919674Y-64039676D03*
X171173248Y-110600354D03*
X171173248Y-107600354D03*
X171011408Y-89353838D03*
X171011408Y-92353838D03*
X170443674Y-73691676D03*
X170443674Y-70691676D03*
D24*
X168633248Y-108235354D03*
X168633248Y-109735354D03*
X168471408Y-89988838D03*
X168471408Y-91488838D03*
X168411674Y-72941676D03*
X168411674Y-71441676D03*
X70993000Y-47637000D03*
X70993000Y-49137000D03*
D23*
X58305000Y-86995000D03*
X59805000Y-86995000D03*
D13*
X48260000Y-102870000D03*
D14*
X48260000Y-100330000D03*
X48260000Y-97790000D03*
X48260000Y-95250000D03*
X104140000Y-72390000D03*
X104140000Y-69850000D03*
D13*
X104140000Y-67310000D03*
D28*
X58151616Y-77500622D03*
X58151616Y-76000622D03*
D12*
X58535000Y-112395000D03*
X57035000Y-112395000D03*
X57035000Y-110490000D03*
X58535000Y-110490000D03*
X57035000Y-108585000D03*
X58535000Y-108585000D03*
X82664000Y-143510000D03*
X81164000Y-143510000D03*
X59805000Y-88900000D03*
X58305000Y-88900000D03*
X58305000Y-90805000D03*
X59805000Y-90805000D03*
X58305000Y-92710000D03*
X59805000Y-92710000D03*
X87109000Y-141605000D03*
X85609000Y-141605000D03*
X85609000Y-143510000D03*
X87109000Y-143510000D03*
X119495000Y-93345000D03*
X117995000Y-93345000D03*
X117995000Y-97155000D03*
X119495000Y-97155000D03*
X117995000Y-95250000D03*
X119495000Y-95250000D03*
X119495000Y-91440000D03*
X117995000Y-91440000D03*
X60080664Y-55938220D03*
X61580664Y-55938220D03*
X81598714Y-45868614D03*
X83098714Y-45868614D03*
X60080664Y-59748220D03*
X61580664Y-59748220D03*
X56905664Y-57843220D03*
X58405664Y-57843220D03*
X63766000Y-81280000D03*
X65266000Y-81280000D03*
X65266000Y-82931000D03*
X63766000Y-82931000D03*
X50390000Y-61600000D03*
X51890000Y-61600000D03*
D28*
X48600000Y-59810000D03*
X48600000Y-58310000D03*
X50505000Y-58310000D03*
X50505000Y-59810000D03*
X72823714Y-49158614D03*
X72823714Y-47658614D03*
X74728714Y-49158614D03*
X74728714Y-47658614D03*
X72823714Y-45983614D03*
X72823714Y-44483614D03*
D12*
X61480000Y-92710000D03*
X62980000Y-92710000D03*
D29*
X50165000Y-55560000D03*
X50165000Y-53660000D03*
X46355000Y-53660000D03*
X46355000Y-55560000D03*
D12*
X125234000Y-64516000D03*
X126734000Y-64516000D03*
X147435000Y-115570000D03*
X145935000Y-115570000D03*
D30*
X176850000Y-42545000D03*
X178750000Y-42545000D03*
X178750000Y-133985000D03*
X176850000Y-133985000D03*
X157800000Y-42545000D03*
X159700000Y-42545000D03*
X159700000Y-133985000D03*
X157800000Y-133985000D03*
X115250000Y-42545000D03*
X113350000Y-42545000D03*
X113350000Y-133841256D03*
X115250000Y-133841256D03*
D12*
X177050000Y-135890000D03*
X178550000Y-135890000D03*
X158000000Y-44450000D03*
X159500000Y-44450000D03*
X158000000Y-135890000D03*
X159500000Y-135890000D03*
X115050000Y-44450000D03*
X113550000Y-44450000D03*
X113550000Y-135890000D03*
X115050000Y-135890000D03*
D31*
X47445000Y-36015000D03*
X50345000Y-36015000D03*
D28*
X84455000Y-62750000D03*
X84455000Y-64250000D03*
D32*
X125247400Y-73254000D03*
X125247400Y-66954000D03*
X129047400Y-73254000D03*
X129047400Y-66954000D03*
D33*
X58590000Y-84770000D03*
X58590000Y-82870000D03*
X60790000Y-82870000D03*
D34*
X60790000Y-84590000D03*
D35*
X59814664Y-53635000D03*
X60764664Y-53635000D03*
X58864664Y-53635000D03*
X58864664Y-51435000D03*
X59814664Y-51435000D03*
X60764664Y-51435000D03*
D36*
X80443714Y-50313614D03*
X80443714Y-49138614D03*
X79268714Y-50313614D03*
X79268714Y-49138614D03*
D37*
X77156214Y-51631114D03*
X77156214Y-50361114D03*
X77156214Y-49091114D03*
X77156214Y-47821114D03*
X82556214Y-47821114D03*
X82556214Y-49091114D03*
X82556214Y-50361114D03*
X82556214Y-51631114D03*
D38*
X54610000Y-57790000D03*
X54610000Y-59690000D03*
X52410000Y-59690000D03*
X52410000Y-58740000D03*
X52410000Y-57790000D03*
D39*
X71527590Y-84853380D03*
X70892590Y-84853380D03*
X70257590Y-84853380D03*
X69622590Y-84853380D03*
X68987590Y-84853380D03*
X68352590Y-84853380D03*
X67717590Y-84853380D03*
X67082590Y-84853380D03*
X67082590Y-79653380D03*
X67717590Y-79653380D03*
X68352590Y-79653380D03*
X68987590Y-79653380D03*
X69622590Y-79653380D03*
X70257590Y-79653380D03*
X70892590Y-79653380D03*
X71527590Y-79653380D03*
D40*
X113290000Y-91880000D03*
X112490000Y-91880000D03*
X111690000Y-91880000D03*
X110890000Y-91880000D03*
X110090000Y-91880000D03*
X109290000Y-91880000D03*
X108490000Y-91880000D03*
X107690000Y-91880000D03*
D41*
X106240000Y-90430000D03*
X106240000Y-89630000D03*
X106240000Y-88830000D03*
X106240000Y-88030000D03*
X106240000Y-87230000D03*
X106240000Y-86430000D03*
X106240000Y-85630000D03*
X106240000Y-84830000D03*
D40*
X107690000Y-83380000D03*
X108490000Y-83380000D03*
X109290000Y-83380000D03*
X110090000Y-83380000D03*
X110890000Y-83380000D03*
X111690000Y-83380000D03*
X112490000Y-83380000D03*
X113290000Y-83380000D03*
D41*
X114740000Y-84830000D03*
X114740000Y-85630000D03*
X114740000Y-86430000D03*
X114740000Y-87230000D03*
X114740000Y-88030000D03*
X114740000Y-88830000D03*
X114740000Y-89630000D03*
X114740000Y-90430000D03*
D38*
X46650000Y-59690000D03*
X46650000Y-58740000D03*
X46650000Y-57790000D03*
X44450000Y-57790000D03*
X44450000Y-59690000D03*
D34*
X123190000Y-83353000D03*
X120650000Y-83353000D03*
X120650000Y-81153000D03*
X123190000Y-81153000D03*
D42*
X41275000Y-33020000D03*
D43*
X41275000Y-35560000D03*
X41275000Y-114300000D03*
X41275000Y-111760000D03*
D42*
X41275000Y-109220000D03*
D43*
X41275000Y-116840000D03*
D44*
X190500000Y-50800000D03*
X190500000Y-35788600D03*
X190500000Y-127000000D03*
X190500000Y-142011400D03*
X146050000Y-35788600D03*
X146050000Y-50800000D03*
X146050000Y-142011400D03*
X146050000Y-127000000D03*
X101600000Y-35788600D03*
X101600000Y-50800000D03*
X101600000Y-142011400D03*
X101600000Y-127000000D03*
D14*
X48260000Y-123190000D03*
X50800000Y-123190000D03*
X48260000Y-125730000D03*
X50800000Y-125730000D03*
X48260000Y-128270000D03*
X50800000Y-128270000D03*
X48260000Y-130810000D03*
X50800000Y-130810000D03*
X48260000Y-133350000D03*
X50800000Y-133350000D03*
X48260000Y-135890000D03*
X50800000Y-135890000D03*
X48260000Y-138430000D03*
X50800000Y-138430000D03*
X48260000Y-140970000D03*
D13*
X50800000Y-140970000D03*
D14*
X116840000Y-72390000D03*
X114300000Y-72390000D03*
X116840000Y-69850000D03*
X114300000Y-69850000D03*
X116840000Y-67310000D03*
D13*
X114300000Y-67310000D03*
D45*
X50545000Y-47625000D03*
X47245000Y-47625000D03*
X196850000Y-87250000D03*
X196850000Y-90550000D03*
X50545000Y-45085000D03*
X47245000Y-45085000D03*
D46*
X191770000Y-88630000D03*
X190820000Y-86630000D03*
X192720000Y-86630000D03*
D12*
X192520000Y-91440000D03*
X191020000Y-91440000D03*
D47*
X70485000Y-54991000D03*
X70485000Y-58991000D03*
D48*
X80117500Y-67425000D03*
X80117500Y-66185000D03*
X79342500Y-67425000D03*
X79342500Y-66185000D03*
D49*
X78180000Y-67805000D03*
X78180000Y-67305000D03*
X78180000Y-66805000D03*
X78180000Y-66305000D03*
X78180000Y-65805000D03*
X81280000Y-65805000D03*
X81280000Y-66305000D03*
X81280000Y-66805000D03*
X81280000Y-67305000D03*
X81280000Y-67805000D03*
D12*
X178550000Y-44450000D03*
X177050000Y-44450000D03*
M02*
