G04 #@! TF.FileFunction,Soldermask,Bot*
%FSLAX46Y46*%
G04 Gerber Fmt 4.6, Leading zero omitted, Abs format (unit mm)*
G04 Created by KiCad (PCBNEW 4.0.6) date 05/15/17 10:50:15*
%MOMM*%
%LPD*%
G01*
G04 APERTURE LIST*
%ADD10C,0.100000*%
%ADD11C,0.150000*%
%ADD12R,1.801600X1.801600*%
%ADD13O,1.801600X1.801600*%
%ADD14C,1.401600*%
%ADD15R,2.100580X2.100580*%
%ADD16O,2.100580X2.100580*%
%ADD17C,10.101600*%
G04 APERTURE END LIST*
D10*
D11*
X38100000Y-25400000D02*
X38100000Y-25400000D01*
X38100000Y-152400000D02*
X38100000Y-25400000D01*
X203200000Y-152400000D02*
X38100000Y-152400000D01*
X203200000Y-25400000D02*
X203200000Y-152400000D01*
X38100000Y-25400000D02*
X203200000Y-25400000D01*
D12*
X62135000Y-109855000D03*
D13*
X62135000Y-112395000D03*
D12*
X74294000Y-144145000D03*
D13*
X76834000Y-144145000D03*
D12*
X74294000Y-140335000D03*
D13*
X76834000Y-140335000D03*
D12*
X145955000Y-113030000D03*
D13*
X148495000Y-113030000D03*
D14*
X47100000Y-84615000D03*
X47100000Y-79115000D03*
D12*
X48260000Y-102870000D03*
D13*
X48260000Y-100330000D03*
X48260000Y-97790000D03*
X48260000Y-95250000D03*
X104140000Y-72390000D03*
X104140000Y-69850000D03*
D12*
X104140000Y-67310000D03*
D15*
X41275000Y-33020000D03*
D16*
X41275000Y-35560000D03*
X41275000Y-114300000D03*
X41275000Y-111760000D03*
D15*
X41275000Y-109220000D03*
D16*
X41275000Y-116840000D03*
D17*
X190500000Y-50800000D03*
X190500000Y-35788600D03*
X190500000Y-127000000D03*
X190500000Y-142011400D03*
X146050000Y-35788600D03*
X146050000Y-50800000D03*
X146050000Y-142011400D03*
X146050000Y-127000000D03*
X101600000Y-35788600D03*
X101600000Y-50800000D03*
X101600000Y-142011400D03*
X101600000Y-127000000D03*
D13*
X48260000Y-123190000D03*
X50800000Y-123190000D03*
X48260000Y-125730000D03*
X50800000Y-125730000D03*
X48260000Y-128270000D03*
X50800000Y-128270000D03*
X48260000Y-130810000D03*
X50800000Y-130810000D03*
X48260000Y-133350000D03*
X50800000Y-133350000D03*
X48260000Y-135890000D03*
X50800000Y-135890000D03*
X48260000Y-138430000D03*
X50800000Y-138430000D03*
X48260000Y-140970000D03*
D12*
X50800000Y-140970000D03*
D13*
X116840000Y-72390000D03*
X114300000Y-72390000D03*
X116840000Y-69850000D03*
X114300000Y-69850000D03*
X116840000Y-67310000D03*
D12*
X114300000Y-67310000D03*
M02*
